Katibeh-Latin-open-Demibold.ufo
<glyph name="exclam" format="1">
  <advance width="169"/>
  <unicode hex="0021"/>
  <outline>
    <contour>
      <point x="33" y="25"/>
      <point x="64" y="-9"/>
      <point x="84" y="-9" type="curve" smooth="yes"/>
      <point x="105" y="-9"/>
      <point x="138" y="23"/>
      <point x="138" y="46" type="curve" smooth="yes"/>
      <point x="138" y="68"/>
      <point x="105" y="101"/>
      <point x="84" y="101" type="curve" smooth="yes"/>
      <point x="64" y="101"/>
      <point x="33" y="67"/>
      <point x="33" y="46" type="curve" smooth="yes"/>
    </contour>
    <contour>
      <point x="61" y="495"/>
      <point x="37" y="488"/>
      <point x="26" y="477" type="curve"/>
      <point x="26" y="428"/>
      <point x="57" y="221"/>
      <point x="76" y="138" type="curve"/>
      <point x="93" y="138" type="line"/>
      <point x="112" y="221"/>
      <point x="142" y="429"/>
      <point x="142" y="477" type="curve"/>
      <point x="131" y="488"/>
      <point x="107" y="495"/>
      <point x="84" y="495" type="curve" smooth="yes"/>
    </contour>
  </outline>
</glyph>
<glyph name="numbersign" format="1">
  <advance width="452"/>
  <unicode hex="0023"/>
  <outline>
    <contour>
      <point x="69" y="276" type="line"/>
      <point x="133" y="276" type="line"/>
      <point x="109" y="189" type="line"/>
      <point x="44" y="189" type="line"/>
      <point x="33" y="146" type="line"/>
      <point x="98" y="146" type="line"/>
      <point x="57" y="0" type="line"/>
      <point x="103" y="0" type="line"/>
      <point x="144" y="146" type="line"/>
      <point x="260" y="146" type="line"/>
      <point x="220" y="0" type="line"/>
      <point x="266" y="0" type="line"/>
      <point x="306" y="146" type="line"/>
      <point x="371" y="146" type="line"/>
      <point x="384" y="189" type="line"/>
      <point x="319" y="189" type="line"/>
      <point x="343" y="276" type="line"/>
      <point x="408" y="276" type="line"/>
      <point x="420" y="319" type="line"/>
      <point x="355" y="319" type="line"/>
      <point x="396" y="467" type="line"/>
      <point x="349" y="467" type="line"/>
      <point x="308" y="319" type="line"/>
      <point x="192" y="319" type="line"/>
      <point x="233" y="467" type="line"/>
      <point x="187" y="467" type="line"/>
      <point x="146" y="319" type="line"/>
      <point x="81" y="319" type="line"/>
    </contour>
    <contour>
      <point x="180" y="276" type="line"/>
      <point x="296" y="276" type="line"/>
      <point x="272" y="189" type="line"/>
      <point x="156" y="189" type="line"/>
    </contour>
  </outline>
</glyph>
<glyph name="ampersand" format="1">
  <advance width="442"/>
  <unicode hex="0026"/>
  <outline>
    <contour>
      <point x="442" y="297"/>
      <point x="395" y="319"/>
      <point x="348" y="320" type="curve"/>
      <point x="361" y="309"/>
      <point x="379" y="278"/>
      <point x="379" y="257" type="curve" smooth="yes"/>
      <point x="379" y="211"/>
      <point x="339" y="202"/>
      <point x="303" y="202" type="curve" smooth="yes"/>
      <point x="273" y="202"/>
      <point x="249" y="207"/>
      <point x="227" y="207" type="curve" smooth="yes"/>
      <point x="189" y="207"/>
      <point x="169" y="189"/>
      <point x="169" y="131" type="curve"/>
      <point x="176" y="128" type="line"/>
      <point x="186" y="146"/>
      <point x="205" y="168"/>
      <point x="287" y="168" type="curve"/>
      <point x="295" y="157"/>
      <point x="301" y="140"/>
      <point x="301" y="115" type="curve" smooth="yes"/>
      <point x="301" y="48"/>
      <point x="259" y="12"/>
      <point x="209" y="12" type="curve" smooth="yes"/>
      <point x="150" y="12"/>
      <point x="120" y="69"/>
      <point x="120" y="124" type="curve" smooth="yes"/>
      <point x="120" y="177"/>
      <point x="149" y="230"/>
      <point x="228" y="250" type="curve"/>
      <point x="228" y="265" type="line"/>
      <point x="179" y="265"/>
      <point x="143" y="297"/>
      <point x="143" y="363" type="curve" smooth="yes"/>
      <point x="143" y="409"/>
      <point x="164" y="455"/>
      <point x="205" y="455" type="curve" smooth="yes"/>
      <point x="233" y="455"/>
      <point x="254" y="423"/>
      <point x="254" y="385" type="curve" smooth="yes"/>
      <point x="254" y="357"/>
      <point x="245" y="328"/>
      <point x="219" y="308" type="curve"/>
      <point x="291" y="309"/>
      <point x="339" y="333"/>
      <point x="339" y="387" type="curve" smooth="yes"/>
      <point x="339" y="430"/>
      <point x="299" y="476"/>
      <point x="214" y="476" type="curve" smooth="yes"/>
      <point x="100" y="476"/>
      <point x="42" y="417"/>
      <point x="42" y="359" type="curve" smooth="yes"/>
      <point x="42" y="299"/>
      <point x="80" y="265"/>
      <point x="138" y="251" type="curve"/>
      <point x="57" y="231"/>
      <point x="16" y="183"/>
      <point x="16" y="125" type="curve" smooth="yes"/>
      <point x="16" y="39"/>
      <point x="88" y="-9"/>
      <point x="197" y="-9" type="curve" smooth="yes"/>
      <point x="317" y="-9"/>
      <point x="359" y="53"/>
      <point x="359" y="103" type="curve" smooth="yes"/>
      <point x="359" y="129"/>
      <point x="346" y="153"/>
      <point x="328" y="170" type="curve"/>
      <point x="383" y="173"/>
      <point x="442" y="188"/>
      <point x="442" y="248" type="curve" smooth="yes"/>
    </contour>
  </outline>
</glyph>
<glyph name="quotesingle" format="1">
  <advance width="126"/>
  <unicode hex="0027"/>
  <outline>
    <contour>
      <point x="43" y="522"/>
      <point x="28" y="516"/>
      <point x="17" y="503" type="curve"/>
      <point x="17" y="468"/>
      <point x="36" y="373"/>
      <point x="55" y="336" type="curve"/>
      <point x="71" y="336" type="line"/>
      <point x="89" y="373"/>
      <point x="109" y="468"/>
      <point x="109" y="503" type="curve"/>
      <point x="99" y="516"/>
      <point x="82" y="522"/>
      <point x="64" y="522" type="curve" smooth="yes"/>
    </contour>
  </outline>
</glyph>
<glyph name="plus" format="1">
  <advance width="404"/>
  <unicode hex="002B"/>
  <outline>
    <contour>
      <point x="64" y="207" type="line"/>
      <point x="177" y="207" type="line"/>
      <point x="177" y="95" type="line"/>
      <point x="226" y="95" type="line"/>
      <point x="226" y="207" type="line"/>
      <point x="339" y="207" type="line"/>
      <point x="339" y="257" type="line"/>
      <point x="226" y="257" type="line"/>
      <point x="226" y="370" type="line"/>
      <point x="177" y="370" type="line"/>
      <point x="177" y="257" type="line"/>
      <point x="64" y="257" type="line"/>
    </contour>
  </outline>
</glyph>
<glyph name="hyphen" format="1">
  <advance width="231"/>
  <unicode hex="002D"/>
  <outline>
    <contour>
      <point x="192" y="170" type="line"/>
      <point x="205" y="180"/>
      <point x="209" y="200"/>
      <point x="209" y="216" type="curve"/>
      <point x="38" y="209" type="line"/>
      <point x="26" y="200"/>
      <point x="21" y="179"/>
      <point x="21" y="164" type="curve"/>
    </contour>
  </outline>
</glyph>
<glyph name="slash" format="1">
  <advance width="241"/>
  <unicode hex="002F"/>
  <outline>
    <contour>
      <point x="40" y="-41" type="line"/>
      <point x="235" y="508" type="line"/>
      <point x="201" y="508" type="line"/>
      <point x="7" y="-41" type="line"/>
    </contour>
  </outline>
</glyph>
<glyph name="zero" format="1">
  <advance width="459"/>
  <unicode hex="0030"/>
  <outline>
    <contour>
      <point x="32" y="97"/>
      <point x="98" y="-9"/>
      <point x="221" y="-9" type="curve" smooth="yes"/>
      <point x="345" y="-9"/>
      <point x="426" y="100"/>
      <point x="426" y="247" type="curve" smooth="yes"/>
      <point x="426" y="383"/>
      <point x="356" y="476"/>
      <point x="238" y="476" type="curve" smooth="yes"/>
      <point x="114" y="476"/>
      <point x="32" y="373"/>
      <point x="32" y="234" type="curve" smooth="yes"/>
    </contour>
    <contour>
      <point x="133" y="364"/>
      <point x="167" y="454"/>
      <point x="229" y="454" type="curve" smooth="yes"/>
      <point x="290" y="454"/>
      <point x="325" y="362"/>
      <point x="325" y="233" type="curve" smooth="yes"/>
      <point x="325" y="103"/>
      <point x="290" y="13"/>
      <point x="229" y="13" type="curve" smooth="yes"/>
      <point x="167" y="13"/>
      <point x="133" y="101"/>
      <point x="133" y="233" type="curve" smooth="yes"/>
    </contour>
  </outline>
</glyph>
<glyph name="equal" format="1">
  <advance width="405"/>
  <unicode hex="003D"/>
  <outline>
    <contour>
      <point x="65" y="137" type="line"/>
      <point x="340" y="137" type="line"/>
      <point x="340" y="187" type="line"/>
      <point x="65" y="187" type="line"/>
    </contour>
    <contour>
      <point x="65" y="278" type="line"/>
      <point x="340" y="278" type="line"/>
      <point x="340" y="327" type="line"/>
      <point x="65" y="327" type="line"/>
    </contour>
  </outline>
</glyph>
<glyph name="A" format="1">
  <advance width="468"/>
  <unicode hex="0041"/>
  <outline>
    <contour>
      <point x="112" y="0" type="line"/>
      <point x="121" y="10" type="line"/>
      <point x="114" y="22" type="line" smooth="yes"/>
      <point x="109" y="33"/>
      <point x="106" y="45"/>
      <point x="106" y="62" type="curve" smooth="yes"/>
      <point x="106" y="78"/>
      <point x="110" y="97"/>
      <point x="121" y="130" type="curve" smooth="yes"/>
      <point x="219" y="426" type="line"/>
      <point x="192" y="426" type="line"/>
      <point x="304" y="96" type="line" smooth="yes"/>
      <point x="311" y="75"/>
      <point x="315" y="62"/>
      <point x="315" y="55" type="curve" smooth="yes"/>
      <point x="315" y="37"/>
      <point x="306" y="28"/>
      <point x="287" y="22" type="curve" smooth="yes"/>
      <point x="272" y="18" type="line"/>
      <point x="278" y="0" type="line"/>
      <point x="459" y="0" type="line"/>
      <point x="468" y="10" type="line"/>
      <point x="434" y="36"/>
      <point x="422" y="53"/>
      <point x="409" y="90" type="curve" smooth="yes"/>
      <point x="278" y="467" type="line"/>
      <point x="142" y="467" type="line"/>
      <point x="135" y="449" type="line"/>
      <point x="146" y="446" type="line" smooth="yes"/>
      <point x="168" y="440"/>
      <point x="178" y="430"/>
      <point x="178" y="415" type="curve" smooth="yes"/>
      <point x="178" y="406"/>
      <point x="176" y="398"/>
      <point x="171" y="380" type="curve" smooth="yes"/>
      <point x="69" y="86" type="line" smooth="yes"/>
      <point x="54" y="44"/>
      <point x="43" y="31"/>
      <point x="10" y="22" type="curve" smooth="yes"/>
      <point x="-5" y="18" type="line"/>
      <point x="2" y="0" type="line"/>
    </contour>
    <contour>
      <point x="321" y="155" type="line"/>
      <point x="321" y="183" type="line"/>
      <point x="115" y="183" type="line"/>
      <point x="115" y="155" type="line"/>
    </contour>
    <contour>
      <point x="459" y="0" type="move" name="ogonek"/>
    </contour>
    <contour>
      <point x="234" y="0" type="move" name="bottom"/>
    </contour>
    <contour>
      <point x="234" y="467" type="move" name="top"/>
    </contour>
  </outline>
</glyph>
<glyph name="B" format="1">
  <advance width="449"/>
  <unicode hex="0042"/>
  <outline>
    <contour>
      <point x="242" y="0" type="line" smooth="yes"/>
      <point x="353" y="0"/>
      <point x="423" y="49"/>
      <point x="423" y="127" type="curve" smooth="yes"/>
      <point x="423" y="194"/>
      <point x="366" y="244"/>
      <point x="285" y="249" type="curve"/>
      <point x="285" y="237" type="line"/>
      <point x="357" y="250"/>
      <point x="403" y="294"/>
      <point x="403" y="351" type="curve" smooth="yes"/>
      <point x="403" y="429"/>
      <point x="334" y="476"/>
      <point x="216" y="476" type="curve" smooth="yes"/>
      <point x="161" y="476"/>
      <point x="85" y="466"/>
      <point x="42" y="453" type="curve"/>
      <point x="38" y="440" type="line"/>
      <point x="50" y="433" type="line" smooth="yes"/>
      <point x="79" y="416"/>
      <point x="81" y="396"/>
      <point x="81" y="354" type="curve" smooth="yes"/>
      <point x="81" y="83" type="line" smooth="yes"/>
      <point x="81" y="39"/>
      <point x="73" y="31"/>
      <point x="26" y="18" type="curve"/>
      <point x="33" y="0" type="line"/>
    </contour>
    <contour>
      <point x="202" y="22"/>
      <point x="177" y="56"/>
      <point x="177" y="111" type="curve" smooth="yes"/>
      <point x="177" y="397" type="line" smooth="yes"/>
      <point x="177" y="432"/>
      <point x="194" y="452"/>
      <point x="223" y="452" type="curve" smooth="yes"/>
      <point x="272" y="452"/>
      <point x="304" y="413"/>
      <point x="304" y="351" type="curve" smooth="yes"/>
      <point x="304" y="289"/>
      <point x="266" y="251"/>
      <point x="205" y="251" type="curve"/>
      <point x="205" y="239" type="line"/>
      <point x="281" y="226"/>
      <point x="324" y="186"/>
      <point x="324" y="125" type="curve" smooth="yes"/>
      <point x="324" y="65"/>
      <point x="289" y="22"/>
      <point x="241" y="22" type="curve" smooth="yes"/>
    </contour>
  </outline>
</glyph>
<glyph name="C" format="1">
  <advance width="415"/>
  <unicode hex="0043"/>
  <outline>
    <contour>
      <point x="323" y="-9"/>
      <point x="379" y="38"/>
      <point x="411" y="92" type="curve"/>
      <point x="399" y="101" type="line"/>
      <point x="369" y="60"/>
      <point x="330" y="27"/>
      <point x="263" y="27" type="curve" smooth="yes"/>
      <point x="178" y="27"/>
      <point x="126" y="120"/>
      <point x="126" y="233" type="curve" smooth="yes"/>
      <point x="126" y="336"/>
      <point x="154" y="452"/>
      <point x="236" y="452" type="curve" smooth="yes"/>
      <point x="279" y="452"/>
      <point x="306" y="418"/>
      <point x="306" y="377" type="curve" smooth="yes"/>
      <point x="306" y="334"/>
      <point x="291" y="306"/>
      <point x="276" y="290" type="curve"/>
      <point x="344" y="290"/>
      <point x="399" y="322"/>
      <point x="399" y="380" type="curve" smooth="yes"/>
      <point x="399" y="437"/>
      <point x="335" y="476"/>
      <point x="243" y="476" type="curve" smooth="yes"/>
      <point x="92" y="476"/>
      <point x="21" y="367"/>
      <point x="21" y="233" type="curve" smooth="yes"/>
      <point x="21" y="99"/>
      <point x="92" y="-9"/>
      <point x="241" y="-9" type="curve" smooth="yes"/>
    </contour>
    <contour>
      <point x="240" y="467" type="move" name="top"/>
    </contour>
    <contour>
      <point x="208" y="0" type="move" name="bottom"/>
    </contour>
  </outline>
</glyph>
<glyph name="E" format="1">
  <advance width="413"/>
  <unicode hex="0045"/>
  <outline>
    <contour>
      <point x="80" y="83" type="line" smooth="yes"/>
      <point x="80" y="39"/>
      <point x="72" y="31"/>
      <point x="25" y="18" type="curve"/>
      <point x="32" y="0" type="line"/>
      <point x="283" y="0" type="line" smooth="yes"/>
      <point x="323" y="0"/>
      <point x="346" y="-3"/>
      <point x="365" y="-17" type="curve"/>
      <point x="376" y="-8" type="line"/>
      <point x="376" y="112" type="line"/>
      <point x="355" y="119" type="line"/>
      <point x="334" y="51"/>
      <point x="314" y="25"/>
      <point x="274" y="25" type="curve" smooth="yes"/>
      <point x="225" y="25" type="line" smooth="yes"/>
      <point x="183" y="25"/>
      <point x="176" y="34"/>
      <point x="176" y="74" type="curve" smooth="yes"/>
      <point x="176" y="225" type="line"/>
      <point x="226" y="225" type="line" smooth="yes"/>
      <point x="278" y="225"/>
      <point x="301" y="216"/>
      <point x="306" y="188" type="curve" smooth="yes"/>
      <point x="310" y="166" type="line"/>
      <point x="332" y="174" type="line"/>
      <point x="332" y="286" type="line"/>
      <point x="319" y="294" type="line"/>
      <point x="314" y="280" type="line" smooth="yes"/>
      <point x="304" y="256"/>
      <point x="287" y="250"/>
      <point x="248" y="250" type="curve" smooth="yes"/>
      <point x="176" y="250" type="line"/>
      <point x="176" y="392" type="line" smooth="yes"/>
      <point x="176" y="433"/>
      <point x="184" y="442"/>
      <point x="218" y="442" type="curve" smooth="yes"/>
      <point x="263" y="442" type="line" smooth="yes"/>
      <point x="307" y="442"/>
      <point x="325" y="418"/>
      <point x="348" y="348" type="curve"/>
      <point x="368" y="355" type="line"/>
      <point x="368" y="480" type="line"/>
      <point x="358" y="489" type="line"/>
      <point x="346" y="480" type="line" smooth="yes"/>
      <point x="333" y="471"/>
      <point x="311" y="467"/>
      <point x="272" y="467" type="curve" smooth="yes"/>
      <point x="51" y="467" type="line"/>
      <point x="43" y="456" type="line"/>
      <point x="51" y="445" type="line" smooth="yes"/>
      <point x="73" y="415"/>
      <point x="80" y="389"/>
      <point x="80" y="336" type="curve" smooth="yes"/>
    </contour>
    <contour>
      <point x="365" y="-17" type="move" name="ogonek"/>
    </contour>
    <contour>
      <point x="207" y="467" type="move" name="top"/>
    </contour>
    <contour>
      <point x="13" y="455" type="move" name="topleft"/>
    </contour>
    <contour>
      <point x="207" y="0" type="move" name="bottom"/>
    </contour>
  </outline>
</glyph>
<glyph name="M" format="1">
  <advance width="600"/>
  <unicode hex="004D"/>
  <outline>
    <contour>
      <point x="311" y="130" type="line"/>
      <point x="199" y="467" type="line"/>
      <point x="53" y="467" type="line"/>
      <point x="46" y="454" type="line"/>
      <point x="81" y="421"/>
      <point x="87" y="408"/>
      <point x="87" y="363" type="curve" smooth="yes"/>
      <point x="87" y="348"/>
      <point x="85" y="315"/>
      <point x="82" y="275" type="curve" smooth="yes"/>
      <point x="70" y="83" type="line" smooth="yes"/>
      <point x="67" y="38"/>
      <point x="59" y="32"/>
      <point x="10" y="18" type="curve"/>
      <point x="16" y="0" type="line"/>
      <point x="127" y="0" type="line"/>
      <point x="136" y="10" type="line"/>
      <point x="112" y="45"/>
      <point x="105" y="66"/>
      <point x="105" y="101" type="curve" smooth="yes"/>
      <point x="105" y="118"/>
      <point x="107" y="144"/>
      <point x="109" y="168" type="curve" smooth="yes"/>
      <point x="125" y="423" type="line"/>
      <point x="114" y="423" type="line"/>
      <point x="257" y="15" type="line"/>
      <point x="285" y="15" type="line"/>
      <point x="428" y="423" type="line"/>
      <point x="418" y="423" type="line"/>
      <point x="439" y="122"/>
      <point x="442" y="77"/>
      <point x="442" y="69" type="curve" smooth="yes"/>
      <point x="442" y="36"/>
      <point x="432" y="30"/>
      <point x="390" y="18" type="curve"/>
      <point x="397" y="0" type="line"/>
      <point x="571" y="0" type="line"/>
      <point x="579" y="10" type="line"/>
      <point x="550" y="40"/>
      <point x="538" y="73"/>
      <point x="535" y="126" type="curve" smooth="yes"/>
      <point x="522" y="304" type="line" smooth="yes"/>
      <point x="521" y="314"/>
      <point x="518" y="355"/>
      <point x="518" y="363" type="curve" smooth="yes"/>
      <point x="518" y="401"/>
      <point x="524" y="419"/>
      <point x="550" y="456" type="curve"/>
      <point x="540" y="467" type="line"/>
      <point x="411" y="467" type="line"/>
      <point x="293" y="130" type="line"/>
    </contour>
  </outline>
</glyph>
<glyph name="O" format="1">
  <advance width="494"/>
  <unicode hex="004F"/>
  <outline>
    <contour>
      <point x="386" y="-9"/>
      <point x="474" y="85"/>
      <point x="474" y="233" type="curve" smooth="yes"/>
      <point x="474" y="382"/>
      <point x="386" y="476"/>
      <point x="247" y="476" type="curve" smooth="yes"/>
      <point x="108" y="476"/>
      <point x="21" y="382"/>
      <point x="21" y="233" type="curve" smooth="yes"/>
      <point x="21" y="84"/>
      <point x="108" y="-9"/>
      <point x="247" y="-9" type="curve" smooth="yes"/>
    </contour>
    <contour>
      <point x="170" y="14"/>
      <point x="122" y="98"/>
      <point x="122" y="228" type="curve" smooth="yes"/>
      <point x="122" y="361"/>
      <point x="174" y="454"/>
      <point x="249" y="454" type="curve" smooth="yes"/>
      <point x="320" y="454"/>
      <point x="370" y="361"/>
      <point x="370" y="231" type="curve" smooth="yes"/>
      <point x="370" y="102"/>
      <point x="319" y="14"/>
      <point x="244" y="14" type="curve" smooth="yes"/>
    </contour>
    <contour>
      <point x="248" y="0" type="move" name="bottom"/>
    </contour>
    <contour>
      <point x="445" y="7" type="move" name="ogonek"/>
    </contour>
    <contour>
      <point x="248" y="467" type="move" name="top"/>
    </contour>
    <contour>
      <point x="481" y="455" type="move" name="topright"/>
    </contour>
    <contour>
      <point x="13" y="455" type="move" name="topleft"/>
    </contour>
    <contour>
      <point x="248" y="228" type="move" name="center"/>
    </contour>
  </outline>
</glyph>
<glyph name="R" format="1">
  <advance width="450"/>
  <unicode hex="0052"/>
  <outline>
    <contour>
      <point x="202" y="0" type="line"/>
      <point x="210" y="10" type="line"/>
      <point x="202" y="22" type="line" smooth="yes"/>
      <point x="180" y="52"/>
      <point x="172" y="78"/>
      <point x="172" y="131" type="curve" smooth="yes"/>
      <point x="172" y="410" type="line" smooth="yes"/>
      <point x="172" y="438"/>
      <point x="188" y="452"/>
      <point x="217" y="452" type="curve" smooth="yes"/>
      <point x="272" y="452"/>
      <point x="308" y="406"/>
      <point x="308" y="336" type="curve" smooth="yes"/>
      <point x="308" y="277"/>
      <point x="279" y="238"/>
      <point x="229" y="230" type="curve" smooth="yes"/>
      <point x="219" y="228"/>
      <point x="206" y="228"/>
      <point x="191" y="230" type="curve"/>
      <point x="189" y="220" type="line"/>
      <point x="209" y="208"/>
      <point x="237" y="200"/>
      <point x="263" y="200" type="curve" smooth="yes"/>
      <point x="344" y="200"/>
      <point x="408" y="259"/>
      <point x="408" y="334" type="curve" smooth="yes"/>
      <point x="408" y="422"/>
      <point x="330" y="476"/>
      <point x="203" y="476" type="curve" smooth="yes"/>
      <point x="152" y="476"/>
      <point x="79" y="466"/>
      <point x="37" y="453" type="curve"/>
      <point x="33" y="440" type="line"/>
      <point x="45" y="433" type="line" smooth="yes"/>
      <point x="74" y="416"/>
      <point x="76" y="388"/>
      <point x="76" y="349" type="curve" smooth="yes"/>
      <point x="76" y="83" type="line" smooth="yes"/>
      <point x="76" y="39"/>
      <point x="68" y="31"/>
      <point x="21" y="18" type="curve"/>
      <point x="28" y="0" type="line"/>
    </contour>
    <contour>
      <point x="408" y="-9"/>
      <point x="439" y="4"/>
      <point x="464" y="34" type="curve"/>
      <point x="456" y="45" type="line"/>
      <point x="444" y="35"/>
      <point x="431" y="29"/>
      <point x="419" y="29" type="curve" smooth="yes"/>
      <point x="404" y="29"/>
      <point x="394" y="36"/>
      <point x="388" y="53" type="curve" smooth="yes"/>
      <point x="353" y="151" type="line" smooth="yes"/>
      <point x="336" y="199"/>
      <point x="293" y="220"/>
      <point x="208" y="220" type="curve"/>
      <point x="206" y="211" type="line"/>
      <point x="232" y="200"/>
      <point x="239" y="178"/>
      <point x="249" y="152" type="curve" smooth="yes"/>
      <point x="278" y="64" type="line" smooth="yes"/>
      <point x="298" y="10"/>
      <point x="322" y="-9"/>
      <point x="370" y="-9" type="curve" smooth="yes"/>
    </contour>
    <contour>
      <point x="226" y="467" type="move" name="top"/>
    </contour>
    <contour>
      <point x="237" y="0" type="move" name="bottom"/>
    </contour>
  </outline>
</glyph>
<glyph name="backslash" format="1">
  <advance width="241"/>
  <unicode hex="005C"/>
  <outline>
    <contour>
      <point x="235" y="-41" type="line"/>
      <point x="40" y="508" type="line"/>
      <point x="7" y="508" type="line"/>
      <point x="202" y="-41" type="line"/>
    </contour>
  </outline>
</glyph>
<glyph name="grave" format="1">
  <advance width="187"/>
  <unicode hex="0060"/>
  <outline>
    <contour>
      <point x="65" y="494" type="line"/>
      <point x="43" y="485"/>
      <point x="28" y="470"/>
      <point x="28" y="449" type="curve" smooth="yes"/>
      <point x="28" y="428"/>
      <point x="39" y="410"/>
      <point x="72" y="399" type="curve" smooth="yes"/>
      <point x="154" y="369" type="line"/>
      <point x="167" y="385" type="line"/>
    </contour>
  </outline>
</glyph>
<glyph name="a" format="1">
  <advance width="365"/>
  <unicode hex="0061"/>
  <outline>
    <contour>
      <point x="128" y="41"/>
      <point x="113" y="58"/>
      <point x="113" y="85" type="curve" smooth="yes"/>
      <point x="113" y="123"/>
      <point x="144" y="148"/>
      <point x="213" y="148" type="curve"/>
      <point x="213" y="74"/>
      <point x="191" y="41"/>
      <point x="154" y="41" type="curve" smooth="yes"/>
    </contour>
    <contour>
      <point x="125" y="233"/>
      <point x="121" y="249"/>
      <point x="121" y="266" type="curve" smooth="yes"/>
      <point x="121" y="291"/>
      <point x="137" y="309"/>
      <point x="162" y="309" type="curve" smooth="yes"/>
      <point x="198" y="309"/>
      <point x="213" y="282"/>
      <point x="213" y="217" type="curve" smooth="yes"/>
      <point x="213" y="167" type="line"/>
      <point x="201" y="168"/>
      <point x="187" y="169"/>
      <point x="176" y="169" type="curve" smooth="yes"/>
      <point x="82" y="169"/>
      <point x="24" y="133"/>
      <point x="24" y="76" type="curve" smooth="yes"/>
      <point x="24" y="25"/>
      <point x="58" y="-9"/>
      <point x="108" y="-9" type="curve" smooth="yes"/>
      <point x="153" y="-9"/>
      <point x="190" y="14"/>
      <point x="211" y="53" type="curve"/>
      <point x="215" y="53" type="line"/>
      <point x="219" y="10"/>
      <point x="239" y="-9"/>
      <point x="279" y="-9" type="curve" smooth="yes"/>
      <point x="314" y="-9"/>
      <point x="342" y="4"/>
      <point x="367" y="32" type="curve"/>
      <point x="359" y="42" type="line"/>
      <point x="348" y="33"/>
      <point x="334" y="27"/>
      <point x="322" y="27" type="curve" smooth="yes"/>
      <point x="308" y="27"/>
      <point x="302" y="36"/>
      <point x="302" y="55" type="curve" smooth="yes"/>
      <point x="302" y="228" type="line" smooth="yes"/>
      <point x="302" y="292"/>
      <point x="250" y="332"/>
      <point x="165" y="332" type="curve" smooth="yes"/>
      <point x="93" y="332"/>
      <point x="44" y="302"/>
      <point x="44" y="257" type="curve" smooth="yes"/>
      <point x="44" y="225"/>
      <point x="62" y="209"/>
      <point x="89" y="209" type="curve" smooth="yes"/>
      <point x="113" y="209"/>
      <point x="127" y="214"/>
      <point x="139" y="221" type="curve"/>
    </contour>
    <contour>
      <point x="324" y="0" type="move" name="ogonek"/>
    </contour>
    <contour>
      <point x="183" y="0" type="move" name="bottom"/>
    </contour>
    <contour>
      <point x="168" y="325" type="move" name="top"/>
    </contour>
  </outline>
</glyph>
<glyph name="e" format="1">
  <advance width="345"/>
  <unicode hex="0065"/>
  <outline>
    <contour>
      <point x="324" y="293"/>
      <point x="271" y="332"/>
      <point x="197" y="332" type="curve" smooth="yes"/>
      <point x="91" y="332"/>
      <point x="23" y="265"/>
      <point x="23" y="161" type="curve" smooth="yes"/>
      <point x="23" y="62"/>
      <point x="91" y="-9"/>
      <point x="184" y="-9" type="curve" smooth="yes"/>
      <point x="240" y="-9"/>
      <point x="289" y="17"/>
      <point x="320" y="61" type="curve"/>
      <point x="308" y="70" type="line"/>
      <point x="280" y="37"/>
      <point x="252" y="24"/>
      <point x="214" y="24" type="curve" smooth="yes"/>
      <point x="157" y="24"/>
      <point x="120" y="79"/>
      <point x="120" y="166" type="curve" smooth="yes"/>
      <point x="120" y="255"/>
      <point x="145" y="308"/>
      <point x="186" y="308" type="curve" smooth="yes"/>
      <point x="214" y="308"/>
      <point x="234" y="279"/>
      <point x="234" y="239" type="curve" smooth="yes"/>
      <point x="234" y="190"/>
      <point x="203" y="159"/>
      <point x="147" y="152" type="curve" smooth="yes"/>
      <point x="134" y="150"/>
      <point x="118" y="150"/>
      <point x="98" y="150" type="curve"/>
      <point x="98" y="140" type="line"/>
      <point x="123" y="135"/>
      <point x="149" y="132"/>
      <point x="173" y="132" type="curve" smooth="yes"/>
      <point x="266" y="132"/>
      <point x="324" y="173"/>
      <point x="324" y="237" type="curve" smooth="yes"/>
    </contour>
    <contour>
      <point x="254" y="7" type="move" name="ogonek"/>
    </contour>
    <contour>
      <point x="173" y="0" type="move" name="bottom"/>
    </contour>
    <contour>
      <point x="187" y="325" type="move" name="top"/>
    </contour>
  </outline>
</glyph>
<glyph name="h" format="1">
  <advance width="435"/>
  <unicode hex="0068"/>
  <outline>
    <contour>
      <point x="364" y="215" type="line" smooth="yes"/>
      <point x="364" y="296"/>
      <point x="339" y="332"/>
      <point x="282" y="332" type="curve" smooth="yes"/>
      <point x="229" y="332"/>
      <point x="175" y="284"/>
      <point x="157" y="222" type="curve"/>
      <point x="157" y="469" type="line" smooth="yes"/>
      <point x="157" y="482"/>
      <point x="145" y="490"/>
      <point x="128" y="490" type="curve" smooth="yes"/>
      <point x="88" y="490"/>
      <point x="44" y="475"/>
      <point x="18" y="451" type="curve"/>
      <point x="22" y="441" type="line"/>
      <point x="53" y="441" type="line" smooth="yes"/>
      <point x="61" y="441"/>
      <point x="66" y="434"/>
      <point x="66" y="423" type="curve" smooth="yes"/>
      <point x="66" y="66" type="line" smooth="yes"/>
      <point x="66" y="33"/>
      <point x="62" y="25"/>
      <point x="40" y="20" type="curve" smooth="yes"/>
      <point x="26" y="17" type="line"/>
      <point x="32" y="0" type="line"/>
      <point x="177" y="0" type="line"/>
      <point x="185" y="10" type="line"/>
      <point x="177" y="20" type="line" smooth="yes"/>
      <point x="162" y="42"/>
      <point x="157" y="63"/>
      <point x="157" y="104" type="curve" smooth="yes"/>
      <point x="157" y="209"/>
      <point x="189" y="281"/>
      <point x="237" y="281" type="curve" smooth="yes"/>
      <point x="261" y="281"/>
      <point x="274" y="261"/>
      <point x="274" y="223" type="curve" smooth="yes"/>
      <point x="274" y="70" type="line" smooth="yes"/>
      <point x="274" y="14"/>
      <point x="293" y="-9"/>
      <point x="341" y="-9" type="curve" smooth="yes"/>
      <point x="375" y="-9"/>
      <point x="403" y="4"/>
      <point x="428" y="32" type="curve"/>
      <point x="420" y="42" type="line"/>
      <point x="409" y="33"/>
      <point x="395" y="27"/>
      <point x="383" y="27" type="curve" smooth="yes"/>
      <point x="371" y="27"/>
      <point x="364" y="37"/>
      <point x="364" y="57" type="curve" smooth="yes"/>
    </contour>
    <contour>
      <point x="130" y="382" type="move" name="center"/>
    </contour>
    <contour>
      <point x="217" y="0" type="move" name="bottom"/>
    </contour>
    <contour>
      <point x="104" y="467" type="move" name="top"/>
    </contour>
  </outline>
</glyph>
<glyph name="k" format="1">
  <advance width="382"/>
  <unicode hex="006B"/>
  <outline>
    <contour>
      <point x="177" y="0" type="line"/>
      <point x="185" y="10" type="line"/>
      <point x="177" y="20" type="line" smooth="yes"/>
      <point x="162" y="42"/>
      <point x="157" y="62"/>
      <point x="157" y="104" type="curve" smooth="yes"/>
      <point x="157" y="469" type="line" smooth="yes"/>
      <point x="157" y="482"/>
      <point x="145" y="490"/>
      <point x="128" y="490" type="curve" smooth="yes"/>
      <point x="88" y="490"/>
      <point x="44" y="475"/>
      <point x="18" y="451" type="curve"/>
      <point x="22" y="441" type="line"/>
      <point x="53" y="441" type="line" smooth="yes"/>
      <point x="62" y="441"/>
      <point x="66" y="437"/>
      <point x="66" y="427" type="curve" smooth="yes"/>
      <point x="66" y="66" type="line" smooth="yes"/>
      <point x="66" y="33"/>
      <point x="62" y="25"/>
      <point x="40" y="20" type="curve" smooth="yes"/>
      <point x="26" y="17" type="line"/>
      <point x="32" y="0" type="line"/>
    </contour>
    <contour>
      <point x="343" y="-9"/>
      <point x="371" y="3"/>
      <point x="395" y="30" type="curve"/>
      <point x="387" y="40" type="line"/>
      <point x="376" y="31"/>
      <point x="364" y="25"/>
      <point x="354" y="25" type="curve" smooth="yes"/>
      <point x="339" y="25"/>
      <point x="331" y="32"/>
      <point x="326" y="47" type="curve" smooth="yes"/>
      <point x="298" y="127" type="line" smooth="yes"/>
      <point x="280" y="178"/>
      <point x="235" y="197"/>
      <point x="136" y="197" type="curve"/>
      <point x="135" y="181" type="line"/>
      <point x="169" y="181"/>
      <point x="188" y="169"/>
      <point x="198" y="140" type="curve" smooth="yes"/>
      <point x="229" y="52" type="line" smooth="yes"/>
      <point x="243" y="8"/>
      <point x="266" y="-9"/>
      <point x="308" y="-9" type="curve" smooth="yes"/>
    </contour>
    <contour>
      <point x="313" y="280" type="line" smooth="yes"/>
      <point x="337" y="297"/>
      <point x="352" y="304"/>
      <point x="369" y="308" type="curve"/>
      <point x="363" y="325" type="line"/>
      <point x="242" y="325" type="line"/>
      <point x="234" y="315" type="line"/>
      <point x="242" y="309" type="line" smooth="yes"/>
      <point x="250" y="302"/>
      <point x="254" y="296"/>
      <point x="254" y="285" type="curve" smooth="yes"/>
      <point x="254" y="272"/>
      <point x="245" y="262"/>
      <point x="217" y="242" type="curve" smooth="yes"/>
      <point x="151" y="194" type="line"/>
      <point x="190" y="190" type="line"/>
    </contour>
    <contour>
      <point x="192" y="325" type="move" name="top"/>
    </contour>
    <contour>
      <point x="192" y="0" type="move" name="bottom"/>
    </contour>
  </outline>
</glyph>
<glyph name="m" format="1">
  <advance width="625"/>
  <unicode hex="006D"/>
  <outline>
    <contour>
      <point x="359" y="222" type="line"/>
      <point x="377" y="285"/>
      <point x="424" y="332"/>
      <point x="473" y="332" type="curve" smooth="yes"/>
      <point x="530" y="332"/>
      <point x="555" y="295"/>
      <point x="555" y="215" type="curve" smooth="yes"/>
      <point x="555" y="57" type="line" smooth="yes"/>
      <point x="555" y="37"/>
      <point x="562" y="27"/>
      <point x="574" y="27" type="curve" smooth="yes"/>
      <point x="587" y="27"/>
      <point x="600" y="33"/>
      <point x="611" y="42" type="curve"/>
      <point x="619" y="32" type="line"/>
      <point x="594" y="4"/>
      <point x="566" y="-9"/>
      <point x="532" y="-9" type="curve" smooth="yes"/>
      <point x="483" y="-9"/>
      <point x="465" y="14"/>
      <point x="465" y="79" type="curve" smooth="yes"/>
      <point x="465" y="223" type="line" smooth="yes"/>
      <point x="465" y="261"/>
      <point x="452" y="281"/>
      <point x="427" y="281" type="curve" smooth="yes"/>
      <point x="382" y="281"/>
      <point x="359" y="189"/>
      <point x="359" y="104" type="curve" smooth="yes"/>
      <point x="360" y="62"/>
      <point x="365" y="42"/>
      <point x="380" y="20" type="curve" smooth="yes"/>
      <point x="388" y="10" type="line"/>
      <point x="380" y="0" type="line"/>
      <point x="269" y="0" type="line"/>
      <point x="269" y="223" type="line" smooth="yes"/>
      <point x="269" y="261"/>
      <point x="256" y="281"/>
      <point x="231" y="281" type="curve" smooth="yes"/>
      <point x="185" y="281"/>
      <point x="163" y="189"/>
      <point x="163" y="104" type="curve" smooth="yes"/>
      <point x="163" y="62"/>
      <point x="169" y="42"/>
      <point x="184" y="20" type="curve" smooth="yes"/>
      <point x="192" y="10" type="line"/>
      <point x="184" y="0" type="line"/>
      <point x="39" y="0" type="line"/>
      <point x="33" y="17" type="line"/>
      <point x="47" y="20" type="line" smooth="yes"/>
      <point x="69" y="25"/>
      <point x="73" y="33"/>
      <point x="73" y="66" type="curve" smooth="yes"/>
      <point x="73" y="261" type="line" smooth="yes"/>
      <point x="73" y="272"/>
      <point x="69" y="276"/>
      <point x="60" y="276" type="curve" smooth="yes"/>
      <point x="28" y="276" type="line"/>
      <point x="25" y="286" type="line"/>
      <point x="51" y="309"/>
      <point x="95" y="325"/>
      <point x="135" y="325" type="curve" smooth="yes"/>
      <point x="152" y="325"/>
      <point x="163" y="317"/>
      <point x="163" y="304" type="curve" smooth="yes"/>
      <point x="163" y="222" type="line"/>
      <point x="179" y="280"/>
      <point x="223" y="332"/>
      <point x="277" y="332" type="curve" smooth="yes"/>
      <point x="332" y="332"/>
      <point x="356" y="298"/>
      <point x="357" y="222" type="curve"/>
    </contour>
  </outline>
</glyph>
<glyph name="r" format="1">
  <advance width="317"/>
  <unicode hex="0072"/>
  <outline>
    <contour>
      <point x="198" y="332"/>
      <point x="169" y="299"/>
      <point x="155" y="235" type="curve"/>
      <point x="152" y="235" type="line"/>
      <point x="152" y="308" type="line" smooth="yes"/>
      <point x="152" y="321"/>
      <point x="140" y="330"/>
      <point x="123" y="330" type="curve" smooth="yes"/>
      <point x="86" y="330"/>
      <point x="44" y="314"/>
      <point x="19" y="291" type="curve"/>
      <point x="23" y="280" type="line"/>
      <point x="54" y="280" type="line" smooth="yes"/>
      <point x="62" y="280"/>
      <point x="67" y="273"/>
      <point x="67" y="261" type="curve" smooth="yes"/>
      <point x="67" y="66" type="line" smooth="yes"/>
      <point x="67" y="33"/>
      <point x="63" y="25"/>
      <point x="41" y="20" type="curve" smooth="yes"/>
      <point x="27" y="17" type="line"/>
      <point x="33" y="0" type="line"/>
      <point x="178" y="0" type="line"/>
      <point x="186" y="10" type="line"/>
      <point x="178" y="20" type="line"/>
      <point x="163" y="46"/>
      <point x="158" y="71"/>
      <point x="158" y="120" type="curve" smooth="yes"/>
      <point x="158" y="215"/>
      <point x="182" y="289"/>
      <point x="214" y="289" type="curve" smooth="yes"/>
      <point x="228" y="289"/>
      <point x="236" y="278"/>
      <point x="236" y="259" type="curve" smooth="yes"/>
      <point x="236" y="231"/>
      <point x="225" y="220"/>
      <point x="218" y="214" type="curve"/>
      <point x="231" y="208"/>
      <point x="244" y="206"/>
      <point x="255" y="206" type="curve" smooth="yes"/>
      <point x="289" y="206"/>
      <point x="313" y="229"/>
      <point x="313" y="266" type="curve" smooth="yes"/>
      <point x="313" y="305"/>
      <point x="283" y="332"/>
      <point x="241" y="332" type="curve" smooth="yes"/>
    </contour>
    <contour>
      <point x="172" y="325" type="move" name="top"/>
    </contour>
    <contour>
      <point x="113" y="0" type="move" name="bottom"/>
    </contour>
  </outline>
</glyph>
<glyph name="w" format="1">
  <advance width="557"/>
  <unicode hex="0077"/>
  <outline>
    <contour>
      <point x="229" y="-9"/>
      <point x="266" y="19"/>
      <point x="280" y="89" type="curve"/>
      <point x="299" y="16"/>
      <point x="321" y="-9"/>
      <point x="377" y="-9" type="curve" smooth="yes"/>
      <point x="469" y="-9"/>
      <point x="518" y="95"/>
      <point x="518" y="263" type="curve" smooth="yes"/>
      <point x="518" y="284"/>
      <point x="517" y="306"/>
      <point x="515" y="332" type="curve"/>
      <point x="431" y="322" type="line"/>
      <point x="424" y="314" type="line"/>
      <point x="432" y="303" type="line" smooth="yes"/>
      <point x="457" y="270"/>
      <point x="468" y="228"/>
      <point x="468" y="169" type="curve" smooth="yes"/>
      <point x="468" y="83"/>
      <point x="444" y="23"/>
      <point x="408" y="23" type="curve" smooth="yes"/>
      <point x="392" y="23"/>
      <point x="378" y="35"/>
      <point x="367" y="113" type="curve" smooth="yes"/>
      <point x="342" y="288" type="line" smooth="yes"/>
      <point x="338" y="322"/>
      <point x="330" y="332"/>
      <point x="311" y="332" type="curve" smooth="yes"/>
      <point x="273" y="332"/>
      <point x="233" y="316"/>
      <point x="208" y="293" type="curve"/>
      <point x="211" y="282" type="line"/>
      <point x="237" y="282" type="line" smooth="yes"/>
      <point x="246" y="282"/>
      <point x="248" y="279"/>
      <point x="250" y="268" type="curve" smooth="yes"/>
      <point x="260" y="227"/>
      <point x="265" y="185"/>
      <point x="265" y="149" type="curve" smooth="yes"/>
      <point x="265" y="74"/>
      <point x="242" y="23"/>
      <point x="204" y="23" type="curve" smooth="yes"/>
      <point x="180" y="23"/>
      <point x="170" y="42"/>
      <point x="161" y="108" type="curve" smooth="yes"/>
      <point x="135" y="288" type="line" smooth="yes"/>
      <point x="130" y="322"/>
      <point x="123" y="332"/>
      <point x="103" y="332" type="curve" smooth="yes"/>
      <point x="66" y="332"/>
      <point x="26" y="316"/>
      <point x="0" y="293" type="curve"/>
      <point x="3" y="282" type="line"/>
      <point x="30" y="282" type="line" smooth="yes"/>
      <point x="38" y="282"/>
      <point x="41" y="279"/>
      <point x="43" y="268" type="curve" smooth="yes"/>
      <point x="64" y="124" type="line" smooth="yes"/>
      <point x="78" y="30"/>
      <point x="111" y="-9"/>
      <point x="175" y="-9" type="curve" smooth="yes"/>
    </contour>
    <contour>
      <point x="284" y="325" type="move" name="top"/>
    </contour>
    <contour>
      <point x="279" y="0" type="move" name="bottom"/>
    </contour>
  </outline>
</glyph>
<glyph name="x" format="1">
  <advance width="366"/>
  <unicode hex="0078"/>
  <outline>
    <contour>
      <point x="315" y="25"/>
      <point x="306" y="32"/>
      <point x="298" y="47" type="curve" smooth="yes"/>
      <point x="180" y="264" type="line" smooth="yes"/>
      <point x="156" y="315"/>
      <point x="133" y="332"/>
      <point x="91" y="332" type="curve" smooth="yes"/>
      <point x="57" y="332"/>
      <point x="30" y="322"/>
      <point x="6" y="295" type="curve"/>
      <point x="13" y="284" type="line"/>
      <point x="24" y="292"/>
      <point x="35" y="297"/>
      <point x="45" y="297" type="curve" smooth="yes"/>
      <point x="57" y="297"/>
      <point x="66" y="290"/>
      <point x="74" y="275" type="curve" smooth="yes"/>
      <point x="192" y="59" type="line" smooth="yes"/>
      <point x="219" y="8"/>
      <point x="241" y="-9"/>
      <point x="282" y="-9" type="curve" smooth="yes"/>
      <point x="317" y="-9"/>
      <point x="344" y="1"/>
      <point x="368" y="30" type="curve"/>
      <point x="359" y="40" type="line"/>
      <point x="349" y="31"/>
      <point x="337" y="25"/>
      <point x="327" y="25" type="curve" smooth="yes"/>
    </contour>
    <contour>
      <point x="198" y="151" type="line"/>
      <point x="354" y="307" type="line"/>
      <point x="348" y="323" type="line"/>
      <point x="242" y="323" type="line"/>
      <point x="234" y="313" type="line"/>
      <point x="242" y="304" type="line" smooth="yes"/>
      <point x="249" y="292"/>
      <point x="252" y="282"/>
      <point x="252" y="272" type="curve" smooth="yes"/>
      <point x="252" y="251"/>
      <point x="227" y="213"/>
      <point x="174" y="153" type="curve"/>
    </contour>
    <contour>
      <point x="166" y="171" type="line"/>
      <point x="12" y="16" type="line"/>
      <point x="18" y="0" type="line"/>
      <point x="123" y="0" type="line"/>
      <point x="131" y="10" type="line"/>
      <point x="124" y="20" type="line" smooth="yes"/>
      <point x="117" y="31"/>
      <point x="113" y="41"/>
      <point x="113" y="51" type="curve" smooth="yes"/>
      <point x="113" y="71"/>
      <point x="137" y="107"/>
      <point x="190" y="169" type="curve"/>
    </contour>
  </outline>
</glyph>
<glyph name="brokenbar" format="1">
  <advance width="228"/>
  <unicode hex="00A6"/>
  <outline>
    <contour>
      <point x="146" y="294" type="line"/>
      <point x="146" y="484" type="line"/>
      <point x="82" y="484" type="line"/>
      <point x="82" y="294" type="line"/>
    </contour>
    <contour>
      <point x="146" y="-53" type="line"/>
      <point x="146" y="137" type="line"/>
      <point x="82" y="137" type="line"/>
      <point x="82" y="-53" type="line"/>
    </contour>
  </outline>
</glyph>
<glyph name="logicalnot" format="1">
  <advance width="405"/>
  <unicode hex="00AC"/>
  <outline>
    <contour>
      <point x="65" y="207" type="line"/>
      <point x="296" y="207" type="line"/>
      <point x="296" y="109" type="line"/>
      <point x="340" y="109" type="line"/>
      <point x="340" y="257" type="line"/>
      <point x="65" y="257" type="line"/>
    </contour>
  </outline>
</glyph>
<glyph name="registered" format="1">
  <advance width="441"/>
  <unicode hex="00AE"/>
  <outline>
    <contour>
      <point x="33" y="220"/>
      <point x="117" y="136"/>
      <point x="220" y="136" type="curve" smooth="yes"/>
      <point x="324" y="136"/>
      <point x="408" y="220"/>
      <point x="408" y="324" type="curve" smooth="yes"/>
      <point x="408" y="427"/>
      <point x="324" y="512"/>
      <point x="220" y="512" type="curve" smooth="yes"/>
      <point x="117" y="512"/>
      <point x="33" y="427"/>
      <point x="33" y="324" type="curve" smooth="yes"/>
    </contour>
    <contour>
      <point x="49" y="418"/>
      <point x="126" y="495"/>
      <point x="220" y="495" type="curve" smooth="yes"/>
      <point x="315" y="495"/>
      <point x="391" y="418"/>
      <point x="391" y="324" type="curve" smooth="yes"/>
      <point x="391" y="229"/>
      <point x="315" y="153"/>
      <point x="220" y="153" type="curve" smooth="yes"/>
      <point x="126" y="153"/>
      <point x="49" y="229"/>
      <point x="49" y="324" type="curve" smooth="yes"/>
    </contour>
    <contour>
      <point x="332" y="211" type="line"/>
      <point x="327" y="211"/>
      <point x="319" y="213"/>
      <point x="317" y="223" type="curve" smooth="yes"/>
      <point x="308" y="270" type="line" smooth="yes"/>
      <point x="302" y="298"/>
      <point x="289" y="314"/>
      <point x="265" y="320" type="curve"/>
      <point x="265" y="322" type="line"/>
      <point x="297" y="330"/>
      <point x="323" y="351"/>
      <point x="323" y="385" type="curve" smooth="yes"/>
      <point x="323" y="424"/>
      <point x="292" y="458"/>
      <point x="216" y="458" type="curve" smooth="yes"/>
      <point x="179" y="458"/>
      <point x="139" y="450"/>
      <point x="121" y="444" type="curve"/>
      <point x="118" y="436" type="line"/>
      <point x="123" y="432" type="line" smooth="yes"/>
      <point x="137" y="421"/>
      <point x="139" y="409"/>
      <point x="139" y="387" type="curve" smooth="yes"/>
      <point x="139" y="277" type="line" smooth="yes"/>
      <point x="139" y="245"/>
      <point x="138" y="228"/>
      <point x="123" y="211" type="curve" smooth="yes"/>
      <point x="118" y="205" type="line"/>
      <point x="123" y="198" type="line"/>
      <point x="220" y="198" type="line"/>
      <point x="224" y="209" type="line"/>
      <point x="217" y="211" type="line" smooth="yes"/>
      <point x="198" y="217"/>
      <point x="193" y="224"/>
      <point x="193" y="248" type="curve" smooth="yes"/>
      <point x="193" y="317" type="line"/>
      <point x="224" y="316"/>
      <point x="241" y="306"/>
      <point x="246" y="280" type="curve" smooth="yes"/>
      <point x="257" y="229" type="line" smooth="yes"/>
      <point x="262" y="202"/>
      <point x="282" y="193"/>
      <point x="298" y="193" type="curve" smooth="yes"/>
      <point x="313" y="193"/>
      <point x="324" y="197"/>
      <point x="335" y="203" type="curve"/>
    </contour>
    <contour>
      <point x="192" y="418" type="line" smooth="yes"/>
      <point x="192" y="429"/>
      <point x="196" y="444"/>
      <point x="221" y="444" type="curve" smooth="yes"/>
      <point x="250" y="444"/>
      <point x="267" y="419"/>
      <point x="267" y="390" type="curve" smooth="yes"/>
      <point x="267" y="339"/>
      <point x="238" y="329"/>
      <point x="192" y="329" type="curve"/>
    </contour>
  </outline>
</glyph>
<glyph name="macron" format="1">
  <advance width="265"/>
  <unicode hex="00AF"/>
  <outline>
    <contour>
      <point x="216" y="395" type="line"/>
      <point x="229" y="407"/>
      <point x="233" y="433"/>
      <point x="233" y="452" type="curve"/>
      <point x="49" y="452" type="line"/>
      <point x="36" y="440"/>
      <point x="32" y="415"/>
      <point x="32" y="395" type="curve"/>
    </contour>
  </outline>
</glyph>
<glyph name="AE" format="1">
  <advance width="645"/>
  <unicode hex="00C6"/>
  <outline>
    <contour>
      <point x="283" y="467" type="line"/>
      <point x="57" y="61" type="line" smooth="yes"/>
      <point x="45" y="40"/>
      <point x="29" y="28"/>
      <point x="7" y="22" type="curve" smooth="yes"/>
      <point x="-8" y="18" type="line"/>
      <point x="-1" y="0" type="line"/>
      <point x="109" y="0" type="line"/>
      <point x="118" y="10" type="line"/>
      <point x="111" y="22" type="line" smooth="yes"/>
      <point x="105" y="33"/>
      <point x="103" y="42"/>
      <point x="103" y="51" type="curve" smooth="yes"/>
      <point x="103" y="68"/>
      <point x="107" y="81"/>
      <point x="117" y="100" type="curve" smooth="yes"/>
      <point x="319" y="467" type="line"/>
    </contour>
    <contour>
      <point x="313" y="83" type="line" smooth="yes"/>
      <point x="313" y="44"/>
      <point x="304" y="31"/>
      <point x="271" y="22" type="curve" smooth="yes"/>
      <point x="257" y="18" type="line"/>
      <point x="264" y="0" type="line"/>
      <point x="522" y="0" type="line" smooth="yes"/>
      <point x="564" y="0"/>
      <point x="580" y="-4"/>
      <point x="598" y="-17" type="curve"/>
      <point x="608" y="-8" type="line"/>
      <point x="608" y="112" type="line"/>
      <point x="588" y="119" type="line"/>
      <point x="564" y="48"/>
      <point x="545" y="25"/>
      <point x="507" y="25" type="curve" smooth="yes"/>
      <point x="458" y="25" type="line" smooth="yes"/>
      <point x="416" y="25"/>
      <point x="409" y="33"/>
      <point x="409" y="74" type="curve" smooth="yes"/>
      <point x="409" y="204" type="line"/>
      <point x="458" y="204" type="line" smooth="yes"/>
      <point x="513" y="204"/>
      <point x="533" y="195"/>
      <point x="538" y="167" type="curve" smooth="yes"/>
      <point x="542" y="146" type="line"/>
      <point x="564" y="154" type="line"/>
      <point x="564" y="269" type="line"/>
      <point x="551" y="276" type="line"/>
      <point x="546" y="263" type="line" smooth="yes"/>
      <point x="537" y="240"/>
      <point x="521" y="233"/>
      <point x="480" y="233" type="curve" smooth="yes"/>
      <point x="409" y="233" type="line"/>
      <point x="409" y="392" type="line" smooth="yes"/>
      <point x="409" y="433"/>
      <point x="417" y="442"/>
      <point x="450" y="442" type="curve" smooth="yes"/>
      <point x="495" y="442" type="line" smooth="yes"/>
      <point x="538" y="442"/>
      <point x="556" y="422"/>
      <point x="580" y="348" type="curve"/>
      <point x="601" y="355" type="line"/>
      <point x="601" y="480" type="line"/>
      <point x="590" y="489" type="line"/>
      <point x="578" y="480" type="line" smooth="yes"/>
      <point x="566" y="471"/>
      <point x="545" y="467"/>
      <point x="504" y="467" type="curve" smooth="yes"/>
      <point x="313" y="467" type="line"/>
    </contour>
    <contour>
      <point x="166" y="205" type="line"/>
      <point x="333" y="205" type="line"/>
      <point x="333" y="233" type="line"/>
      <point x="166" y="233" type="line"/>
    </contour>
    <contour>
      <point x="298" y="443" type="line"/>
      <point x="323" y="443" type="line"/>
      <point x="323" y="460" type="line"/>
      <point x="298" y="460" type="line"/>
    </contour>
    <contour>
      <point x="411" y="467" type="move" name="top"/>
    </contour>
    <contour>
      <point x="322" y="0" type="move" name="bottom"/>
    </contour>
  </outline>
</glyph>
<glyph name="ae" format="1">
  <advance width="535"/>
  <unicode hex="00E6"/>
  <outline>
    <contour>
      <point x="514" y="290"/>
      <point x="464" y="332"/>
      <point x="386" y="332" type="curve" smooth="yes"/>
      <point x="283" y="332"/>
      <point x="217" y="264"/>
      <point x="217" y="161" type="curve" smooth="yes"/>
      <point x="217" y="62"/>
      <point x="283" y="-9"/>
      <point x="375" y="-9" type="curve" smooth="yes"/>
      <point x="440" y="-9"/>
      <point x="485" y="24"/>
      <point x="510" y="61" type="curve"/>
      <point x="498" y="70" type="line"/>
      <point x="476" y="45"/>
      <point x="450" y="24"/>
      <point x="405" y="24" type="curve" smooth="yes"/>
      <point x="344" y="24"/>
      <point x="310" y="83"/>
      <point x="310" y="166" type="curve" smooth="yes"/>
      <point x="310" y="253"/>
      <point x="335" y="308"/>
      <point x="375" y="308" type="curve" smooth="yes"/>
      <point x="409" y="308"/>
      <point x="427" y="275"/>
      <point x="427" y="239" type="curve" smooth="yes"/>
      <point x="427" y="203"/>
      <point x="406" y="169"/>
      <point x="338" y="162" type="curve" smooth="yes"/>
      <point x="323" y="160"/>
      <point x="306" y="160"/>
      <point x="287" y="160" type="curve"/>
      <point x="287" y="150" type="line"/>
      <point x="316" y="145"/>
      <point x="341" y="142"/>
      <point x="363" y="142" type="curve" smooth="yes"/>
      <point x="474" y="142"/>
      <point x="514" y="189"/>
      <point x="514" y="237" type="curve" smooth="yes"/>
    </contour>
    <contour>
      <point x="93" y="332"/>
      <point x="44" y="302"/>
      <point x="44" y="257" type="curve" smooth="yes"/>
      <point x="44" y="225"/>
      <point x="62" y="209"/>
      <point x="89" y="209" type="curve" smooth="yes"/>
      <point x="113" y="209"/>
      <point x="127" y="214"/>
      <point x="139" y="221" type="curve"/>
      <point x="125" y="233"/>
      <point x="121" y="249"/>
      <point x="121" y="266" type="curve" smooth="yes"/>
      <point x="121" y="291"/>
      <point x="137" y="309"/>
      <point x="162" y="309" type="curve" smooth="yes"/>
      <point x="198" y="309"/>
      <point x="213" y="282"/>
      <point x="213" y="217" type="curve" smooth="yes"/>
      <point x="213" y="151" type="line" smooth="yes"/>
      <point x="213" y="77"/>
      <point x="192" y="53"/>
      <point x="167" y="45" type="curve" smooth="yes"/>
      <point x="159" y="42"/>
      <point x="151" y="42"/>
      <point x="144" y="43" type="curve" smooth="yes"/>
      <point x="126" y="45"/>
      <point x="113" y="60"/>
      <point x="113" y="89" type="curve" smooth="yes"/>
      <point x="113" y="146"/>
      <point x="179" y="158"/>
      <point x="258" y="147" type="curve"/>
      <point x="257" y="158" type="line"/>
      <point x="229" y="167"/>
      <point x="201" y="169"/>
      <point x="176" y="169" type="curve" smooth="yes"/>
      <point x="76" y="169"/>
      <point x="24" y="130"/>
      <point x="24" y="76" type="curve" smooth="yes"/>
      <point x="24" y="20"/>
      <point x="61" y="-9"/>
      <point x="111" y="-9" type="curve" smooth="yes"/>
      <point x="158" y="-9"/>
      <point x="213" y="17"/>
      <point x="232" y="105" type="curve"/>
      <point x="302" y="69" type="line"/>
      <point x="302" y="228" type="line" smooth="yes"/>
      <point x="302" y="296"/>
      <point x="244" y="332"/>
      <point x="165" y="332" type="curve" smooth="yes"/>
    </contour>
    <contour>
      <point x="268" y="325" type="move" name="top"/>
    </contour>
    <contour>
      <point x="268" y="0" type="move" name="bottom"/>
    </contour>
  </outline>
</glyph>
<glyph name="oslash" format="1">
  <advance width="385"/>
  <unicode hex="00F8"/>
  <outline>
    <component base="o"/>
    <component base="uni0338" xOffset="71" yOffset="-12" yScale="0.75"/>
    <contour>
      <point x="192" y="325" type="move" name="top"/>
    </contour>
  </outline>
</glyph>
<glyph name="circumflex" format="1">
  <advance width="243"/>
  <unicode hex="02C6"/>
  <outline>
    <contour>
      <point x="105" y="491" type="line"/>
      <point x="82" y="472"/>
      <point x="50" y="428"/>
      <point x="25" y="382" type="curve"/>
      <point x="40" y="369" type="line"/>
      <point x="67" y="386"/>
      <point x="94" y="404"/>
      <point x="121" y="422" type="curve" smooth="yes"/>
      <point x="117" y="427" type="line"/>
      <point x="204" y="369" type="line"/>
      <point x="220" y="382" type="line"/>
      <point x="193" y="428"/>
      <point x="163" y="472"/>
      <point x="139" y="491" type="curve"/>
    </contour>
  </outline>
</glyph>
<glyph name="dotaccent" format="1">
  <advance width="211"/>
  <unicode hex="02D9"/>
  <outline>
    <contour>
      <point x="48" y="403"/>
      <point x="83" y="366"/>
      <point x="105" y="366" type="curve" smooth="yes"/>
      <point x="129" y="366"/>
      <point x="164" y="403"/>
      <point x="164" y="428" type="curve" smooth="yes"/>
      <point x="164" y="452"/>
      <point x="129" y="490"/>
      <point x="105" y="490" type="curve" smooth="yes"/>
      <point x="82" y="490"/>
      <point x="48" y="452"/>
      <point x="48" y="428" type="curve" smooth="yes"/>
    </contour>
  </outline>
</glyph>
<glyph name="tilde" format="1">
  <advance width="265"/>
  <unicode hex="02DC"/>
  <outline>
    <contour>
      <point x="220" y="470" type="line"/>
      <point x="201" y="452"/>
      <point x="185" y="444"/>
      <point x="173" y="444" type="curve" smooth="yes"/>
      <point x="146" y="444"/>
      <point x="137" y="470"/>
      <point x="106" y="470" type="curve" smooth="yes"/>
      <point x="78" y="470"/>
      <point x="53" y="442"/>
      <point x="27" y="400" type="curve"/>
      <point x="43" y="385" type="line"/>
      <point x="62" y="402"/>
      <point x="79" y="410"/>
      <point x="91" y="410" type="curve" smooth="yes"/>
      <point x="118" y="410"/>
      <point x="126" y="385"/>
      <point x="158" y="385" type="curve" smooth="yes"/>
      <point x="186" y="385"/>
      <point x="211" y="412"/>
      <point x="237" y="455" type="curve"/>
    </contour>
  </outline>
</glyph>
<glyph name="hungarumlaut" format="1">
  <advance width="345"/>
  <unicode hex="02DD"/>
  <outline>
    <contour>
      <point x="40" y="386" type="line"/>
      <point x="53" y="371" type="line"/>
      <point x="133" y="400" type="line" smooth="yes"/>
      <point x="163" y="411"/>
      <point x="174" y="428"/>
      <point x="174" y="449" type="curve" smooth="yes"/>
      <point x="174" y="468"/>
      <point x="161" y="483"/>
      <point x="139" y="492" type="curve"/>
    </contour>
    <contour>
      <point x="175" y="386" type="line"/>
      <point x="187" y="371" type="line"/>
      <point x="267" y="400" type="line" smooth="yes"/>
      <point x="298" y="411"/>
      <point x="308" y="428"/>
      <point x="308" y="449" type="curve" smooth="yes"/>
      <point x="308" y="468"/>
      <point x="295" y="483"/>
      <point x="273" y="492" type="curve"/>
    </contour>
  </outline>
</glyph>
<glyph name="uni0306" format="1">
  <advance width="223"/>
  <unicode hex="0306"/>
  <outline>
    <contour>
      <point x="161" y="368"/>
      <point x="199" y="401"/>
      <point x="199" y="469" type="curve"/>
      <point x="167" y="469" type="line"/>
      <point x="162" y="440"/>
      <point x="142" y="422"/>
      <point x="112" y="422" type="curve" smooth="yes"/>
      <point x="80" y="422"/>
      <point x="60" y="440"/>
      <point x="56" y="469" type="curve"/>
      <point x="23" y="469" type="line"/>
      <point x="23" y="401"/>
      <point x="61" y="368"/>
      <point x="112" y="368" type="curve" smooth="yes"/>
    </contour>
    <contour>
      <point x="112" y="469" type="move" name="top"/>
    </contour>
    <contour>
      <point x="112" y="325" type="move" name="_top"/>
    </contour>
  </outline>
</glyph>
<glyph name="uni0327" format="1">
  <advance width="228"/>
  <unicode hex="0327"/>
  <outline>
    <contour>
      <point x="90" y="-42" type="line"/>
      <point x="134" y="12" type="line"/>
      <point x="108" y="12" type="line"/>
      <point x="48" y="-61" type="line"/>
      <point x="60" y="-73" type="line"/>
      <point x="72" y="-66"/>
      <point x="83" y="-63"/>
      <point x="94" y="-63" type="curve" smooth="yes"/>
      <point x="121" y="-63"/>
      <point x="139" y="-82"/>
      <point x="139" y="-116" type="curve" smooth="yes"/>
      <point x="139" y="-144"/>
      <point x="126" y="-174"/>
      <point x="101" y="-174" type="curve" smooth="yes"/>
      <point x="86" y="-174"/>
      <point x="74" y="-162"/>
      <point x="74" y="-142" type="curve" smooth="yes"/>
      <point x="74" y="-131"/>
      <point x="78" y="-117"/>
      <point x="84" y="-112" type="curve"/>
      <point x="76" y="-108"/>
      <point x="63" y="-106"/>
      <point x="54" y="-106" type="curve" smooth="yes"/>
      <point x="28" y="-106"/>
      <point x="15" y="-125"/>
      <point x="15" y="-144" type="curve" smooth="yes"/>
      <point x="15" y="-176"/>
      <point x="55" y="-192"/>
      <point x="97" y="-192" type="curve" smooth="yes"/>
      <point x="160" y="-192"/>
      <point x="207" y="-162"/>
      <point x="207" y="-114" type="curve" smooth="yes"/>
      <point x="207" y="-64"/>
      <point x="160" y="-42"/>
      <point x="115" y="-42" type="curve" smooth="yes"/>
      <point x="107" y="-42"/>
      <point x="99" y="-43"/>
      <point x="93" y="-45" type="curve"/>
    </contour>
    <contour>
      <point x="114" y="0" type="move" name="_bottom"/>
    </contour>
    <contour>
      <point x="112" y="-192" type="move" name="bottom"/>
    </contour>
  </outline>
</glyph>
<glyph name="uni0336" format="1">
  <advance width="467"/>
  <unicode hex="0336"/>
  <outline>
    <contour>
      <point x="447" y="216" type="line"/>
      <point x="457" y="226"/>
      <point x="461" y="243"/>
      <point x="461" y="257" type="curve"/>
      <point x="19" y="257" type="line"/>
      <point x="9" y="248"/>
      <point x="7" y="230"/>
      <point x="7" y="216" type="curve"/>
    </contour>
    <contour>
      <point x="234" y="237" type="move" name="_center"/>
    </contour>
  </outline>
</glyph>
<glyph name="uni0338" format="1">
  <advance width="241"/>
  <unicode hex="0338"/>
  <outline>
    <contour>
      <point x="46" y="-41" type="line"/>
      <point x="235" y="508" type="line"/>
      <point x="194" y="508" type="line"/>
      <point x="7" y="-41" type="line"/>
    </contour>
    <contour>
      <point x="121" y="233" type="move" name="_center"/>
    </contour>
  </outline>
</glyph>
<glyph name="lira" format="1">
  <advance width="398"/>
  <unicode hex="20A4"/>
  <outline>
    <contour>
      <point x="283" y="137" type="line"/>
      <point x="295" y="143"/>
      <point x="298" y="155"/>
      <point x="298" y="164" type="curve"/>
      <point x="46" y="164" type="line"/>
      <point x="34" y="159"/>
      <point x="31" y="146"/>
      <point x="31" y="137" type="curve"/>
    </contour>
    <contour>
      <point x="283" y="224" type="line"/>
      <point x="295" y="231"/>
      <point x="298" y="243"/>
      <point x="298" y="252" type="curve"/>
      <point x="46" y="252" type="line"/>
      <point x="34" y="246"/>
      <point x="31" y="234"/>
      <point x="31" y="224" type="curve"/>
    </contour>
    <contour>
      <point x="113" y="476"/>
      <point x="64" y="414"/>
      <point x="64" y="332" type="curve" smooth="yes"/>
      <point x="64" y="270"/>
      <point x="96" y="218"/>
      <point x="96" y="161" type="curve" smooth="yes"/>
      <point x="96" y="114"/>
      <point x="68" y="60"/>
      <point x="20" y="28" type="curve"/>
      <point x="37" y="0" type="line"/>
      <point x="353" y="0" type="line"/>
      <point x="370" y="17"/>
      <point x="375" y="49"/>
      <point x="375" y="74" type="curve"/>
      <point x="111" y="74" type="line"/>
      <point x="168" y="107"/>
      <point x="175" y="155"/>
      <point x="175" y="196" type="curve" smooth="yes"/>
      <point x="175" y="236"/>
      <point x="165" y="278"/>
      <point x="165" y="322" type="curve" smooth="yes"/>
      <point x="165" y="434"/>
      <point x="200" y="452"/>
      <point x="231" y="452" type="curve" smooth="yes"/>
      <point x="263" y="452"/>
      <point x="289" y="423"/>
      <point x="289" y="382" type="curve" smooth="yes"/>
      <point x="289" y="351"/>
      <point x="280" y="319"/>
      <point x="260" y="294" type="curve"/>
      <point x="319" y="296"/>
      <point x="376" y="326"/>
      <point x="376" y="384" type="curve" smooth="yes"/>
      <point x="376" y="438"/>
      <point x="317" y="476"/>
      <point x="233" y="476" type="curve" smooth="yes"/>
    </contour>
  </outline>
</glyph>
<glyph name="uni2206" format="1">
  <advance width="454"/>
  <unicode hex="2206"/>
  <outline>
    <contour>
      <point x="33" y="0" type="line"/>
      <point x="421" y="0" type="line"/>
      <point x="259" y="467" type="line"/>
      <point x="193" y="467" type="line"/>
    </contour>
    <contour>
      <point x="216" y="399" type="line"/>
      <point x="339" y="40" type="line"/>
      <point x="96" y="40" type="line"/>
    </contour>
  </outline>
</glyph>
<glyph name="product" format="1">
  <advance width="442"/>
  <unicode hex="220F"/>
  <outline>
    <contour>
      <point x="376" y="-65" type="line"/>
      <point x="376" y="487" type="line"/>
      <point x="433" y="487" type="line"/>
      <point x="433" y="528" type="line"/>
      <point x="10" y="528" type="line"/>
      <point x="10" y="487" type="line"/>
      <point x="67" y="487" type="line"/>
      <point x="67" y="-65" type="line"/>
      <point x="125" y="-65" type="line"/>
      <point x="125" y="487" type="line"/>
      <point x="318" y="487" type="line"/>
      <point x="318" y="-65" type="line"/>
    </contour>
  </outline>
</glyph>
<glyph name="summation" format="1">
  <advance width="338"/>
  <unicode hex="2211"/>
  <outline>
    <contour>
      <point x="13" y="-25" type="line"/>
      <point x="54" y="-65" type="line"/>
      <point x="339" y="-65" type="line"/>
      <point x="339" y="-14" type="line"/>
      <point x="88" y="-14" type="line"/>
      <point x="259" y="231" type="line"/>
      <point x="98" y="487" type="line"/>
      <point x="338" y="487" type="line"/>
      <point x="338" y="528" type="line"/>
      <point x="25" y="528" type="line"/>
      <point x="25" y="502" type="line"/>
      <point x="194" y="235" type="line"/>
    </contour>
  </outline>
</glyph>
<glyph name="radical" format="1">
  <advance width="381"/>
  <unicode hex="221A"/>
  <outline>
    <contour>
      <point x="296" y="527" type="line"/>
      <point x="169" y="-4" type="line"/>
      <point x="84" y="250" type="line"/>
      <point x="-25" y="206" type="line"/>
      <point x="-13" y="175" type="line"/>
      <point x="39" y="196" type="line"/>
      <point x="129" y="-65" type="line"/>
      <point x="199" y="-65" type="line"/>
      <point x="334" y="488" type="line"/>
      <point x="413" y="488" type="line"/>
      <point x="413" y="527" type="line"/>
    </contour>
  </outline>
</glyph>
<glyph name="fi" format="1">
  <advance width="421"/>
  <unicode hex="FB01"/>
  <outline>
    <contour>
      <point x="402" y="33"/>
      <point x="389" y="27"/>
      <point x="378" y="27" type="curve" smooth="yes"/>
      <point x="365" y="27"/>
      <point x="359" y="37"/>
      <point x="359" y="57" type="curve" smooth="yes"/>
      <point x="359" y="307" type="line" smooth="yes"/>
      <point x="359" y="320"/>
      <point x="351" y="332"/>
      <point x="334" y="332" type="curve" smooth="yes"/>
      <point x="311" y="332"/>
      <point x="299" y="321"/>
      <point x="255" y="321" type="curve" smooth="yes"/>
      <point x="151" y="321" type="line"/>
      <point x="151" y="416"/>
      <point x="176" y="475"/>
      <point x="231" y="475" type="curve" smooth="yes"/>
      <point x="268" y="475"/>
      <point x="286" y="450"/>
      <point x="286" y="420" type="curve" smooth="yes"/>
      <point x="286" y="392"/>
      <point x="275" y="381"/>
      <point x="268" y="375" type="curve"/>
      <point x="281" y="369"/>
      <point x="294" y="367"/>
      <point x="305" y="367" type="curve" smooth="yes"/>
      <point x="339" y="367"/>
      <point x="363" y="390"/>
      <point x="363" y="427" type="curve" smooth="yes"/>
      <point x="363" y="475"/>
      <point x="306" y="499"/>
      <point x="241" y="499" type="curve" smooth="yes"/>
      <point x="132" y="499"/>
      <point x="71" y="430"/>
      <point x="61" y="321" type="curve"/>
      <point x="23" y="312" type="line"/>
      <point x="10" y="308"/>
      <point x="9" y="305"/>
      <point x="9" y="282" type="curve"/>
      <point x="60" y="282" type="line"/>
      <point x="60" y="105" type="line" smooth="yes"/>
      <point x="60" y="63"/>
      <point x="55" y="41"/>
      <point x="39" y="20" type="curve" smooth="yes"/>
      <point x="31" y="10" type="line"/>
      <point x="39" y="0" type="line"/>
      <point x="195" y="0" type="line"/>
      <point x="201" y="17" type="line"/>
      <point x="188" y="20" type="line" smooth="yes"/>
      <point x="157" y="27"/>
      <point x="151" y="33"/>
      <point x="151" y="66" type="curve" smooth="yes"/>
      <point x="151" y="282" type="line"/>
      <point x="255" y="282" type="line" smooth="yes"/>
      <point x="264" y="282"/>
      <point x="268" y="278"/>
      <point x="268" y="268" type="curve" smooth="yes"/>
      <point x="268" y="79" type="line" smooth="yes"/>
      <point x="268" y="10"/>
      <point x="289" y="-9"/>
      <point x="335" y="-9" type="curve" smooth="yes"/>
      <point x="373" y="-9"/>
      <point x="400" y="7"/>
      <point x="423" y="32" type="curve"/>
      <point x="415" y="42" type="line"/>
    </contour>
  </outline>
</glyph>
<glyph name="fl" format="1">
  <advance width="429"/>
  <unicode hex="FB02"/>
  <outline>
    <contour>
      <point x="276" y="60" type="line" smooth="yes"/>
      <point x="276" y="10"/>
      <point x="299" y="-9"/>
      <point x="343" y="-9" type="curve" smooth="yes"/>
      <point x="380" y="-9"/>
      <point x="407" y="7"/>
      <point x="430" y="32" type="curve"/>
      <point x="422" y="42" type="line"/>
      <point x="411" y="33"/>
      <point x="397" y="27"/>
      <point x="385" y="27" type="curve" smooth="yes"/>
      <point x="373" y="27"/>
      <point x="367" y="37"/>
      <point x="367" y="57" type="curve" smooth="yes"/>
      <point x="367" y="469" type="line" smooth="yes"/>
      <point x="367" y="483"/>
      <point x="356" y="490"/>
      <point x="340" y="490" type="curve" smooth="yes"/>
      <point x="321" y="490"/>
      <point x="300" y="485"/>
      <point x="280" y="477" type="curve"/>
      <point x="260" y="492"/>
      <point x="233" y="499"/>
      <point x="207" y="499" type="curve" smooth="yes"/>
      <point x="115" y="499"/>
      <point x="64" y="432"/>
      <point x="61" y="321" type="curve"/>
      <point x="23" y="312" type="line" smooth="yes"/>
      <point x="10" y="308"/>
      <point x="9" y="305"/>
      <point x="9" y="282" type="curve"/>
      <point x="60" y="282" type="line"/>
      <point x="60" y="105" type="line" smooth="yes"/>
      <point x="60" y="63"/>
      <point x="55" y="41"/>
      <point x="39" y="20" type="curve" smooth="yes"/>
      <point x="31" y="10" type="line"/>
      <point x="39" y="0" type="line"/>
      <point x="195" y="0" type="line"/>
      <point x="201" y="17" type="line"/>
      <point x="188" y="20" type="line" smooth="yes"/>
      <point x="157" y="27"/>
      <point x="151" y="33"/>
      <point x="151" y="66" type="curve" smooth="yes"/>
      <point x="151" y="282" type="line"/>
      <point x="209" y="282" type="line"/>
      <point x="218" y="289"/>
      <point x="224" y="304"/>
      <point x="224" y="321" type="curve"/>
      <point x="151" y="321" type="line"/>
      <point x="151" y="421"/>
      <point x="163" y="475"/>
      <point x="215" y="475" type="curve" smooth="yes"/>
      <point x="258" y="475"/>
      <point x="276" y="440"/>
      <point x="276" y="389" type="curve" smooth="yes"/>
    </contour>
  </outline>
</glyph>
<glyph name="eight.numr" format="1">
  <advance width="268"/>
  <outline>
    <contour>
      <point x="72" y="478"/>
      <point x="27" y="445"/>
      <point x="27" y="394" type="curve" smooth="yes"/>
      <point x="27" y="297"/>
      <point x="176" y="301"/>
      <point x="176" y="242" type="curve" smooth="yes"/>
      <point x="176" y="220"/>
      <point x="159" y="204"/>
      <point x="134" y="204" type="curve" smooth="yes"/>
      <point x="108" y="204"/>
      <point x="93" y="221"/>
      <point x="93" y="251" type="curve" smooth="yes"/>
      <point x="93" y="287"/>
      <point x="111" y="315"/>
      <point x="142" y="328" type="curve"/>
      <point x="133" y="333" type="line"/>
      <point x="65" y="330"/>
      <point x="21" y="297"/>
      <point x="21" y="250" type="curve" smooth="yes"/>
      <point x="21" y="207"/>
      <point x="61" y="181"/>
      <point x="126" y="181" type="curve" smooth="yes"/>
      <point x="200" y="181"/>
      <point x="247" y="213"/>
      <point x="247" y="263" type="curve" smooth="yes"/>
      <point x="247" y="357"/>
      <point x="97" y="354"/>
      <point x="97" y="419" type="curve" smooth="yes"/>
      <point x="97" y="440"/>
      <point x="113" y="455"/>
      <point x="133" y="455" type="curve" smooth="yes"/>
      <point x="156" y="455"/>
      <point x="170" y="439"/>
      <point x="170" y="412" type="curve" smooth="yes"/>
      <point x="170" y="381"/>
      <point x="154" y="354"/>
      <point x="127" y="342" type="curve"/>
      <point x="128" y="336" type="line"/>
      <point x="194" y="338"/>
      <point x="241" y="369"/>
      <point x="241" y="411" type="curve" smooth="yes"/>
      <point x="241" y="452"/>
      <point x="203" y="478"/>
      <point x="141" y="478" type="curve" smooth="yes"/>
    </contour>
  </outline>
</glyph>
<glyph name="five.dnom" format="1">
  <advance width="261"/>
  <outline>
    <contour>
      <point x="195" y="-9"/>
      <point x="239" y="23"/>
      <point x="239" y="73" type="curve" smooth="yes"/>
      <point x="239" y="124"/>
      <point x="189" y="161"/>
      <point x="119" y="161" type="curve" smooth="yes"/>
      <point x="99" y="161"/>
      <point x="85" y="159"/>
      <point x="71" y="154" type="curve"/>
      <point x="75" y="232" type="line"/>
      <point x="203" y="232" type="line"/>
      <point x="215" y="241"/>
      <point x="221" y="258"/>
      <point x="221" y="280" type="curve"/>
      <point x="48" y="280" type="line"/>
      <point x="41" y="149" type="line"/>
      <point x="51" y="132" type="line"/>
      <point x="73" y="136"/>
      <point x="82" y="137"/>
      <point x="89" y="137" type="curve" smooth="yes"/>
      <point x="135" y="137"/>
      <point x="163" y="113"/>
      <point x="163" y="73" type="curve" smooth="yes"/>
      <point x="163" y="38"/>
      <point x="147" y="14"/>
      <point x="123" y="14" type="curve" smooth="yes"/>
      <point x="102" y="14"/>
      <point x="91" y="29"/>
      <point x="91" y="58" type="curve" smooth="yes"/>
      <point x="91" y="75"/>
      <point x="96" y="89"/>
      <point x="105" y="98" type="curve"/>
      <point x="103" y="105" type="line"/>
      <point x="51" y="104"/>
      <point x="20" y="86"/>
      <point x="20" y="56" type="curve" smooth="yes"/>
      <point x="20" y="17"/>
      <point x="63" y="-9"/>
      <point x="126" y="-9" type="curve" smooth="yes"/>
    </contour>
  </outline>
</glyph>
<glyph name="five.numr" format="1">
  <advance width="261"/>
  <outline>
    <contour>
      <point x="195" y="181"/>
      <point x="239" y="213"/>
      <point x="239" y="263" type="curve" smooth="yes"/>
      <point x="239" y="314"/>
      <point x="189" y="351"/>
      <point x="119" y="351" type="curve" smooth="yes"/>
      <point x="99" y="351"/>
      <point x="85" y="349"/>
      <point x="71" y="344" type="curve"/>
      <point x="75" y="422" type="line"/>
      <point x="203" y="422" type="line"/>
      <point x="215" y="431"/>
      <point x="221" y="448"/>
      <point x="221" y="470" type="curve"/>
      <point x="48" y="470" type="line"/>
      <point x="41" y="339" type="line"/>
      <point x="51" y="322" type="line"/>
      <point x="73" y="326"/>
      <point x="82" y="327"/>
      <point x="89" y="327" type="curve" smooth="yes"/>
      <point x="135" y="327"/>
      <point x="163" y="303"/>
      <point x="163" y="263" type="curve" smooth="yes"/>
      <point x="163" y="228"/>
      <point x="147" y="204"/>
      <point x="123" y="204" type="curve" smooth="yes"/>
      <point x="102" y="204"/>
      <point x="91" y="219"/>
      <point x="91" y="248" type="curve" smooth="yes"/>
      <point x="91" y="265"/>
      <point x="96" y="279"/>
      <point x="105" y="288" type="curve"/>
      <point x="103" y="295" type="line"/>
      <point x="51" y="294"/>
      <point x="20" y="276"/>
      <point x="20" y="246" type="curve" smooth="yes"/>
      <point x="20" y="207"/>
      <point x="63" y="181"/>
      <point x="126" y="181" type="curve" smooth="yes"/>
    </contour>
  </outline>
</glyph>
<glyph name="nine.numr" format="1">
  <advance width="281"/>
  <outline>
    <contour>
      <point x="36" y="202"/>
      <point x="73" y="181"/>
      <point x="127" y="181" type="curve" smooth="yes"/>
      <point x="205" y="181"/>
      <point x="253" y="234"/>
      <point x="253" y="321" type="curve" smooth="yes"/>
      <point x="253" y="419"/>
      <point x="211" y="475"/>
      <point x="138" y="475" type="curve" smooth="yes"/>
      <point x="76" y="475"/>
      <point x="30" y="433"/>
      <point x="30" y="377" type="curve" smooth="yes"/>
      <point x="30" y="335"/>
      <point x="63" y="304"/>
      <point x="107" y="304" type="curve" smooth="yes"/>
      <point x="136" y="304"/>
      <point x="159" y="314"/>
      <point x="174" y="333" type="curve"/>
      <point x="178" y="333" type="line"/>
      <point x="178" y="244"/>
      <point x="164" y="206"/>
      <point x="132" y="206" type="curve" smooth="yes"/>
      <point x="117" y="206"/>
      <point x="107" y="219"/>
      <point x="107" y="239" type="curve" smooth="yes"/>
      <point x="107" y="253"/>
      <point x="113" y="271"/>
      <point x="119" y="278" type="curve"/>
      <point x="118" y="285" type="line"/>
      <point x="67" y="285"/>
      <point x="36" y="265"/>
      <point x="36" y="233" type="curve" smooth="yes"/>
    </contour>
    <contour>
      <point x="122" y="329"/>
      <point x="110" y="353"/>
      <point x="110" y="390" type="curve" smooth="yes"/>
      <point x="110" y="427"/>
      <point x="123" y="453"/>
      <point x="142" y="453" type="curve" smooth="yes"/>
      <point x="160" y="453"/>
      <point x="174" y="426"/>
      <point x="174" y="389" type="curve" smooth="yes"/>
      <point x="174" y="354"/>
      <point x="160" y="329"/>
      <point x="140" y="329" type="curve" smooth="yes"/>
    </contour>
  </outline>
</glyph>
<glyph name="nine.osf" format="1">
  <advance width="405"/>
  <outline>
    <contour>
      <point x="153" y="97"/>
      <point x="132" y="149"/>
      <point x="132" y="201" type="curve" smooth="yes"/>
      <point x="132" y="253"/>
      <point x="154" y="306"/>
      <point x="198" y="306" type="curve" smooth="yes"/>
      <point x="238" y="306"/>
      <point x="259" y="253"/>
      <point x="259" y="201" type="curve" smooth="yes"/>
      <point x="259" y="149"/>
      <point x="237" y="97"/>
      <point x="192" y="97" type="curve" smooth="yes"/>
    </contour>
    <contour>
      <point x="130" y="-18"/>
      <point x="138" y="6"/>
      <point x="155" y="18" type="curve"/>
      <point x="153" y="25" type="line"/>
      <point x="79" y="25"/>
      <point x="39" y="-2"/>
      <point x="39" y="-43" type="curve" smooth="yes"/>
      <point x="39" y="-92"/>
      <point x="97" y="-126"/>
      <point x="175" y="-126" type="curve" smooth="yes"/>
      <point x="308" y="-126"/>
      <point x="370" y="-23"/>
      <point x="370" y="107" type="curve" smooth="yes"/>
      <point x="370" y="230"/>
      <point x="315" y="332"/>
      <point x="197" y="332" type="curve" smooth="yes"/>
      <point x="84" y="332"/>
      <point x="29" y="256"/>
      <point x="29" y="183" type="curve" smooth="yes"/>
      <point x="29" y="119"/>
      <point x="69" y="55"/>
      <point x="148" y="55" type="curve" smooth="yes"/>
      <point x="203" y="55"/>
      <point x="242" y="84"/>
      <point x="262" y="127" type="curve"/>
      <point x="267" y="126" type="line"/>
      <point x="267" y="119"/>
      <point x="269" y="103"/>
      <point x="269" y="91" type="curve" smooth="yes"/>
      <point x="269" y="-4"/>
      <point x="247" y="-103"/>
      <point x="181" y="-103" type="curve" smooth="yes"/>
      <point x="150" y="-103"/>
      <point x="130" y="-79"/>
      <point x="130" y="-41" type="curve" smooth="yes"/>
    </contour>
  </outline>
</glyph>
<glyph name="one.numr" format="1">
  <advance width="225"/>
  <outline>
    <contour>
      <point x="156" y="452" type="line"/>
      <point x="166" y="459" type="line"/>
      <point x="161" y="468"/>
      <point x="155" y="473"/>
      <point x="147" y="476" type="curve"/>
      <point x="4" y="423" type="line"/>
      <point x="6" y="406"/>
      <point x="22" y="385"/>
      <point x="37" y="382" type="curve"/>
      <point x="80" y="410" type="line"/>
      <point x="80" y="243" type="line" smooth="yes"/>
      <point x="80" y="220"/>
      <point x="76" y="214"/>
      <point x="58" y="210" type="curve" smooth="yes"/>
      <point x="37" y="206" type="line"/>
      <point x="43" y="190" type="line"/>
      <point x="172" y="190" type="line"/>
      <point x="178" y="198" type="line"/>
      <point x="173" y="206" type="line" smooth="yes"/>
      <point x="160" y="227"/>
      <point x="156" y="243"/>
      <point x="156" y="270" type="curve" smooth="yes"/>
    </contour>
  </outline>
</glyph>
<glyph name="three.dnom" format="1">
  <advance width="261"/>
  <outline>
    <contour>
      <point x="91" y="75"/>
      <point x="96" y="89"/>
      <point x="105" y="98" type="curve"/>
      <point x="103" y="105" type="line"/>
      <point x="51" y="104"/>
      <point x="20" y="86"/>
      <point x="20" y="56" type="curve" smooth="yes"/>
      <point x="20" y="17"/>
      <point x="62" y="-9"/>
      <point x="125" y="-9" type="curve" smooth="yes"/>
      <point x="196" y="-9"/>
      <point x="238" y="20"/>
      <point x="238" y="69" type="curve" smooth="yes"/>
      <point x="238" y="107"/>
      <point x="214" y="135"/>
      <point x="174" y="144" type="curve"/>
      <point x="212" y="160"/>
      <point x="230" y="183"/>
      <point x="230" y="216" type="curve" smooth="yes"/>
      <point x="230" y="256"/>
      <point x="188" y="285"/>
      <point x="129" y="285" type="curve" smooth="yes"/>
      <point x="70" y="285"/>
      <point x="28" y="260"/>
      <point x="28" y="225" type="curve" smooth="yes"/>
      <point x="28" y="192"/>
      <point x="57" y="173"/>
      <point x="109" y="172" type="curve"/>
      <point x="111" y="179" type="line"/>
      <point x="104" y="187"/>
      <point x="99" y="206"/>
      <point x="99" y="225" type="curve" smooth="yes"/>
      <point x="99" y="246"/>
      <point x="110" y="263"/>
      <point x="124" y="263" type="curve" smooth="yes"/>
      <point x="142" y="263"/>
      <point x="155" y="242"/>
      <point x="155" y="214" type="curve" smooth="yes"/>
      <point x="155" y="178"/>
      <point x="132" y="153"/>
      <point x="88" y="142" type="curve" smooth="yes"/>
      <point x="72" y="138" type="line"/>
      <point x="75" y="124" type="line"/>
      <point x="83" y="126"/>
      <point x="90" y="128"/>
      <point x="106" y="128" type="curve" smooth="yes"/>
      <point x="141" y="128"/>
      <point x="162" y="107"/>
      <point x="162" y="72" type="curve" smooth="yes"/>
      <point x="162" y="37"/>
      <point x="146" y="14"/>
      <point x="123" y="14" type="curve" smooth="yes"/>
      <point x="102" y="14"/>
      <point x="91" y="29"/>
      <point x="91" y="58" type="curve" smooth="yes"/>
    </contour>
  </outline>
</glyph>
<glyph name="zero.osf" format="1">
  <advance width="398"/>
  <outline>
    <contour>
      <point x="123" y="260"/>
      <point x="142" y="308"/>
      <point x="185" y="308" type="curve" smooth="yes"/>
      <point x="239" y="308"/>
      <point x="272" y="224"/>
      <point x="272" y="129" type="curve" smooth="yes"/>
      <point x="272" y="64"/>
      <point x="253" y="15"/>
      <point x="210" y="15" type="curve" smooth="yes"/>
      <point x="142" y="15"/>
      <point x="123" y="136"/>
      <point x="123" y="196" type="curve" smooth="yes"/>
    </contour>
    <contour>
      <point x="25" y="81"/>
      <point x="67" y="-9"/>
      <point x="191" y="-9" type="curve" smooth="yes"/>
      <point x="308" y="-9"/>
      <point x="374" y="73"/>
      <point x="374" y="171" type="curve" smooth="yes"/>
      <point x="374" y="261"/>
      <point x="316" y="332"/>
      <point x="207" y="332" type="curve" smooth="yes"/>
      <point x="93" y="332"/>
      <point x="25" y="255"/>
      <point x="25" y="162" type="curve" smooth="yes"/>
    </contour>
  </outline>
</glyph>
